<svg version="1.2" xmlns="http://www.w3.org/2000/svg" viewBox="0 0 405 112" width="405" height="112"><defs><linearGradient id="P" gradientUnits="userSpaceOnUse"/><linearGradient id="g1" x2="1" href="#P" gradientTransform="matrix(273.584,0,0,60,131.111,0)"><stop stop-color="#e90dda"/><stop offset="1" stop-color="#15cff1"/></linearGradient><linearGradient id="g2" x2="1" href="#P" gradientTransform="matrix(111.111,0,0,111.111,.444,.444)"><stop stop-color="#e90dda"/><stop offset="1" stop-color="#15cff1"/></linearGradient><linearGradient id="g3" x2="1" href="#P" gradientTransform="matrix(218.867,0,0,12.694,131.111,60)"><stop stop-color="#e90dda"/><stop offset="1" stop-color="#15cff1"/></linearGradient></defs><style>.a{fill:url(#g1)}.b{fill:url(#g2)}.c{fill:url(#g3)}</style><path class="a" d="m142.6 59l4.5-22.8h20.2l2.1-10.1h-20.3l2.4-12.1h23.1l2.1-10.1h-34.5l-11.1 55.1zm47.9 0l1.7-8.8h-4.9l10-49.6h-11.1l-10 50.1c-0.2 0.8-0.2 1.4-0.2 2 0 3.8 2.8 6.3 7.1 6.3zm24.1 1c12.3 0 21.4-11.1 21.4-26.1 0-10.9-6.4-17.3-16.5-17.3-12.3 0-21.4 11.1-21.4 26.1 0 10.9 6.4 17.3 16.5 17.3zm0.4-8.9c-3.9 0-5.9-2.7-5.9-6.6 0-1 0.1-2 0.2-2.4l1.5-7.5c1.2-5.9 4.1-9.1 8.3-9.1 3.9 0 5.9 2.7 5.9 6.6 0 1-0.1 2-0.2 2.4l-1.5 7.5c-1.2 5.9-4.1 9.1-8.3 9.1zm30.1 7.9h11.8l7.2-15.6 5.3-12h0.5l1 13.8 1.2 13.8h11.6l19-41.4h-10.9l-7.1 17-4.9 12.6h-0.5l-0.9-14.6-1.1-15h-10.2l-7.8 17-5.1 12h-0.5l-0.2-14-0.6-15h-10.9zm89.5 0h12.6l-12.8-31.5 22.7-23.7h-13.9l-14.9 16-8.7 10.4h-0.5l5.3-26.4h-11.5l-11.1 55.2h11.5l2.9-14.2 9.1-9.5zm33.4-46.1c5.3 0 6.9-2.9 7.6-5.7 0.3-0.9 0.5-2.2 0.5-3.1 0-2.6-1.8-4.1-5.7-4.1-5.3 0-6.9 2.9-7.6 5.7-0.2 0.9-0.5 2.2-0.5 3.1 0 2.6 1.8 4.1 5.7 4.1zm0.9 46.1l1.7-8.9h-4.6l6.6-32.6h-11.1l-6.7 33.2c-0.1 0.8-0.2 1.4-0.2 2 0 3.8 2.8 6.3 7.1 6.3zm26.8 0l1.7-8.9h-7.6l4.7-23.7h8.4l1.9-8.9h-8.5l2.2-11.2h-10.2l-1.4 7c-0.6 2.9-1.3 4.2-4.7 4.2h-2.7l-1.8 8.9h5.8l-4.2 21.4c-0.2 1.2-0.3 2.6-0.3 3.4 0 5.2 3.3 7.8 9.7 7.8z"/><path class="b" d="m56 104.1h-7.4c-3.7 0-3.7 0-3.7 3.7 0 3.6 0 3.6 3.7 3.6h7.4c3.7 0 3.7 0 3.7-3.6 0-3.7 0-3.7-3.7-3.7zm-22.2 0h-7.5c-3.6 0-3.6 0-3.6 3.7 0 3.6 0 3.6 3.6 3.6h7.5c3.6 0 3.6 0 3.6-3.6 0-3.7 0-3.7-3.6-3.7zm44.4-7.3c-3.6 0-3.6 0-3.6 3.6v3.7h-3.7c-3.7 0-3.7 0-3.7 3.7 0 3.6 0 3.6 3.7 3.6h7.3c3.7 0 3.7 0 3.7-3.6v-7.4c0-3.6 0-3.6-3.7-3.6zm-66.6 7.3h-3.7v-3.7c0-3.6 0-3.6-3.7-3.6-3.6 0-3.8 0-3.8 3.6v7.5c0 3.7 0 3.7 3.7 3.7h7.5c3.6 0 3.6 0 3.6-3.7 0-3.8 0-3.8-3.6-3.8zm66.6-29.5c-3.6 0-3.6 0-3.6 3.6v7.5c0 3.6 0 3.6 3.6 3.6 3.7 0 3.7 0 3.7-3.6v-7.5c0-3.6 0-3.6-3.7-3.6zm-74.1 14.7c3.7 0 3.7 0 3.7-3.6v-7.5c0-3.6 0-3.6-3.7-3.6-3.7 0-3.7 0-3.7 3.6v7.5c0 3.6 0 3.6 3.7 3.6zm107.5-11.1v-74.1c0-3.7 0-3.7-3.7-3.7h-74.1c-3.7 0-3.7 0-3.7 3.7v74.1c0 3.7 0 3.7 3.7 3.7h74.1c3.7 0 3.7 0 3.7-3.7zm-107.5-11.1c3.7 0 3.7 0 3.7-3.7v-7.4c0-3.7 0-3.7-3.7-3.7-3.7 0-3.7 0-3.7 3.7v7.4c0 3.7 0 3.7 3.7 3.7zm74.1-37h-7.4c-3.7 0-3.7 0-3.7 3.7 0 3.6 0 3.6 3.7 3.6h3.6v3.7c0 3.7 0 3.7 3.7 3.7 3.7 0 3.7 0 3.7-3.7v-7.3c0.1-3.7 0.1-3.7-3.6-3.7zm-22.2 0h-7.4c-3.7 0-3.7 0-3.7 3.7 0 3.6 0 3.6 3.7 3.6h7.4c3.7 0 3.7 0 3.7-3.6 0-3.7 0-3.7-3.7-3.7zm-22.2 0h-7.5c-3.6 0-3.6 0-3.6 3.7 0 3.6 0 3.6 3.6 3.6h7.5c3.6 0 3.6 0 3.6-3.6 0-3.7 0-3.7-3.6-3.7zm-22.2 0h-7.5c-3.7 0-3.7 0-3.7 3.7v7.4c0 3.7 0 3.7 3.7 3.7 3.7 0 3.7 0 3.7-3.7v-3.6h3.8c3.6 0 3.6 0 3.6-3.7 0-3.7 0-3.8-3.6-3.8zm66.6 22.2c-3.6 0-3.6 0-3.6 3.7v7.4c0 3.7 0 3.7 3.6 3.7 3.7 0 3.7 0 3.7-3.7v-7.4c0-3.7 0-3.7-3.7-3.7z"/><path class="c" d="m138.2 72.5h2.1l1.3-6.8h-4.6l-0.4 2.1h2.2l-0.1 0.6c-0.3 1.2-1.5 2-3 2-1.1 0-2-0.6-2-2.2q0-0.4 0.1-0.9l0.4-2c0.3-1.9 1.4-3 3.2-3 1.3 0 2.2 0.6 2.5 1.7l2.1-1.1c-0.5-1.9-2.3-2.9-4.4-2.9-3.9 0-6.5 3.3-6.5 7.8 0 3.2 1.6 4.9 4 4.9 1.6 0 2.7-1 3.3-2.2h0.2zm9.6 0.2c3.7 0 6.3-3.4 6.3-7.7 0-3.5-2-4.9-4.4-4.9-3.6 0-6.3 3.4-6.3 7.7 0 3.5 2.1 4.9 4.4 4.9zm0.2-2.2q-2 0-2-2.3 0-0.4 0.1-0.9l0.3-1.8c0.4-2 1.5-3.2 3.2-3.2q2 0 2 2.3 0 0.3-0.1 0.9l-0.4 1.8c-0.4 2-1.5 3.2-3.1 3.2zm7 2h4.7c4.1 0 6.4-3.3 6.4-7.6 0-3.1-1.8-4.6-4.7-4.6h-3.9zm3-2.3l1.5-7.8h2c1.2 0 2 0.7 2 2.1 0 0.2 0 0.7-0.1 1.1l-0.4 1.7c-0.4 2-1.6 2.9-3.1 2.9zm14 2.5c3.6 0 6.3-3.5 6.3-7.7 0-3.5-2.1-5-4.4-5-3.7 0-6.3 3.5-6.3 7.7 0 3.5 2 5 4.4 5zm0.1-2.3q-2 0-2-2.2 0-0.4 0.1-1l0.4-1.8c0.4-2 1.5-3.1 3.1-3.1q2 0 2 2.2 0 0.4-0.1 0.9l-0.3 1.9c-0.4 2-1.5 3.1-3.2 3.1zm16.6-8l0.4-2.2h-9l-0.5 2.2h3.3l-2 10.1h2.5l2-10.1zm9.6 10.1l6.4-12.3h-2.7l-2.6 5.1-1.9 4.5h-0.2l-0.3-4.9-0.4-4.7h-2.6l1.5 12.3zm10.5 0l0.4-2.1h-1.5l1.7-8.1h1.5l0.4-2.1h-5.6l-0.4 2.1h1.5l-1.6 8.1h-1.5l-0.5 2.1zm6.3 0.2c3.1 0 5-2.2 5-4.3 0-1.9-1.3-2.9-3.2-3.3l-0.7-0.2c-0.9-0.2-1.3-0.5-1.3-1.2 0-0.9 0.7-1.4 2-1.4 1.3 0 1.9 0.3 2.5 1l1.8-1.6c-0.8-1.1-2.4-1.7-4.2-1.7-2.8 0-4.7 1.7-4.7 3.9 0 2 1.1 2.9 2.9 3.3l0.8 0.2c0.8 0.2 1.4 0.5 1.4 1.3 0 1-0.8 1.7-2.3 1.7-1.3 0-2-0.5-2.6-1.4l-2 1.5c0.9 1.6 2.6 2.2 4.6 2.2zm8.6-12.5l-1.4 6.9q-0.1 0.9-0.1 1.6c0 2.6 1.5 4 4.1 4 3.1 0 4.6-1.6 5.3-5.1l1.4-7.4h-2.5l-1.5 7.5c-0.3 1.8-1.1 2.7-2.5 2.7-1.2 0-1.8-0.6-1.8-1.8 0-0.3 0-0.8 0.1-1.1l1.4-7.3zm19 12.3l-1.4-12.3h-3.2l-6.3 12.3h2.7l1.5-3h3.9l0.3 3zm-3.1-5.1h-2.7l2.2-4.9h0.1zm11.7 5.1l0.5-2.2h-4.5l2-10.1h-2.5l-2.5 12.3zm10.2 0.2c3.1 0 4.9-2.2 4.9-4.3 0-1.9-1.2-2.8-3.1-3.3l-0.8-0.2c-0.8-0.1-1.3-0.4-1.3-1.1 0-0.9 0.8-1.5 2.1-1.5 1.2 0 1.9 0.3 2.4 1.1l1.9-1.7c-0.9-1.1-2.4-1.7-4.2-1.7-2.8 0-4.8 1.7-4.8 4 0 2 1.2 2.9 3 3.2l0.8 0.2c0.8 0.2 1.4 0.6 1.4 1.3 0 1-0.9 1.7-2.3 1.7-1.3 0-2.1-0.4-2.7-1.4l-1.9 1.5c0.9 1.6 2.5 2.2 4.6 2.2zm11.2 0c2.1 0 3.9-1 5-3.1l-2.1-1c-0.6 1.1-1.3 1.8-2.7 1.8-1.4 0-2-0.7-2-2.2q0-0.4 0-0.9l0.4-1.9c0.4-1.9 1.4-3.1 3.1-3.1 1.3 0 1.8 0.7 2.1 1.7l2.2-1c-0.6-1.9-2-3-4.1-3-3.6 0-6.3 3.4-6.3 7.7 0 3.3 1.8 5 4.4 5zm9.6-4.7h2l1.2 4.5h2.8l-1.5-4.8c1.9-0.7 3-2.4 3-4.3 0-2-1.4-3.2-3.7-3.2h-4.8l-2.5 12.3h2.6zm0.4-2.2l0.7-3.3h2.6c0.8 0 1.1 0.5 1.1 1 0 0.2 0 0.5-0.2 1.1-0.1 0.8-0.8 1.2-1.6 1.2zm12.8 6.8l0.4-2.1h-1.5l1.6-8.1h1.5l0.5-2.1h-5.6l-0.4 2.1h1.5l-1.7 8.1h-1.5l-0.4 2.1zm4.7 0l0.9-4.5h2.8c2.7 0 4.7-1.8 4.7-4.5 0-2.1-1.4-3.3-3.8-3.3h-4.7l-2.4 12.3zm2-10.1h2.6c0.8 0 1.1 0.5 1.1 1 0 0.2 0 0.5-0.2 1.1-0.1 0.8-0.8 1.2-1.6 1.2h-2.6zm16.9 0l0.4-2.2h-9l-0.5 2.2h3.3l-2 10.1h2.5l2-10.1zm4.9 10.1l0.4-2.1h-1.6l1.7-8.1h1.5l0.4-2.1h-5.6l-0.4 2.1h1.5l-1.6 8.1h-1.5l-0.4 2.1zm9 0h2.8l2.5-12.3h-2.5l-1.6 8.3h-0.1l-0.8-2.4-2-5.9h-2.7l-2.5 12.3h2.4l1.7-8.4h0.1l0.7 2.5zm13.1 0h2.1l1.4-6.8h-4.7l-0.4 2.1h2.2l-0.1 0.6c-0.2 1.1-1.4 2-2.9 2-1.1 0-2.1-0.7-2.1-2.2q0-0.4 0.1-1l0.4-1.9c0.4-1.9 1.4-3.1 3.3-3.1 1.2 0 2.1 0.7 2.4 1.8l2.2-1.1c-0.6-1.9-2.3-2.9-4.5-2.9-3.8 0-6.4 3.3-6.4 7.7 0 3.3 1.6 5 3.9 5 1.7 0 2.8-1 3.4-2.2h0.1z"/></svg>