<svg version="1.2" xmlns="http://www.w3.org/2000/svg" viewBox="0 0 220 48" width="1000" height="218"><defs><linearGradient id="P" gradientUnits="userSpaceOnUse"/><linearGradient id="g1" x2="1" href="#P" gradientTransform="matrix(220,0,0,48.248,0,-0.124)"><stop stop-color="#e90dda"/><stop offset="1" stop-color="#15cff1"/></linearGradient></defs><style>.a{fill:url(#g1)}</style><path class="a" d="m9.2 47.4l3.6-18.4h16.3l1.7-8.2h-16.3l1.9-9.7h18.6l1.7-8.1h-27.8l-8.9 44.4zm38.5 0l1.4-7.2h-4l8.1-39.9h-8.9l-8.1 40.4c-0.1 0.6-0.2 1.1-0.2 1.6 0 3 2.3 5.1 5.7 5.1zm19.4 0.7c10 0 17.3-8.9 17.3-20.9 0-8.8-5.2-14-13.3-14-9.9 0-17.2 8.9-17.2 21 0 8.7 5.1 13.9 13.2 13.9zm0.3-7.1c-3 0-4.7-2.2-4.7-5.4 0-0.8 0.1-1.5 0.2-1.9l1.2-6c0.9-4.8 3.3-7.3 6.7-7.3 3.1 0 4.7 2.1 4.7 5.3 0 0.8-0.1 1.6-0.2 2l-1.2 5.9c-0.9 4.8-3.3 7.4-6.7 7.4zm24.3 6.4h9.4l5.8-12.6 4.3-9.6h0.4l0.8 11 1 11.2h9.3l15.3-33.4h-8.8l-5.7 13.7-4 10.1h-0.3l-0.7-11.7-0.9-12.1h-8.3l-6.2 13.7-4.1 9.7h-0.4l-0.2-11.3-0.5-12.1h-8.8zm72 0h10.2l-10.4-25.3 18.3-19.1h-11.2l-11.9 12.9-7 8.3h-0.5l4.3-21.2h-9.2l-8.9 44.4h9.2l2.3-11.4 7.4-7.6zm26.9-37.1c4.2 0 5.5-2.3 6-4.5 0.3-0.8 0.4-1.8 0.4-2.6 0-2-1.4-3.3-4.5-3.3-4.3 0-5.6 2.4-6.1 4.6-0.3 0.8-0.4 1.8-0.4 2.5 0 2.1 1.4 3.3 4.6 3.3zm0.6 37.1l1.4-7.2h-3.7l5.3-26.2h-8.9l-5.4 26.7c-0.1 0.6-0.2 1.1-0.2 1.6 0 3 2.3 5.1 5.8 5.1zm21.5 0l1.3-7.2h-6l3.8-19.1h6.7l1.5-7.1h-6.8l1.8-9h-8.3l-1.1 5.7c-0.5 2.2-1 3.3-3.7 3.3h-2.2l-1.5 7.1h4.7l-3.4 17.2c-0.2 1-0.3 2.1-0.3 2.8 0 4.2 2.7 6.3 7.9 6.3z"/></svg>